<svg id="Layer_2" viewBox="0 0 512 512" xmlns="http://www.w3.org/2000/svg" data-name="Layer 2"><g id="Icon"><g id="_96" data-name="96"><path d="m256 0c-141.38 0-256 114.62-256 256s114.62 256 256 256 256-114.62 256-256-114.62-256-256-256zm163.34 419.34c-43.63 43.63-101.64 67.66-163.34 67.66s-119.71-24.03-163.34-67.66-67.66-101.64-67.66-163.34 24.03-119.71 67.66-163.34 101.64-67.66 163.34-67.66 119.71 24.03 163.34 67.66 67.66 101.64 67.66 163.34-24.03 119.71-67.66 163.34z" fill="#e5e5e5"/><g><path d="m210.43 347.46h91.14c8.38 0 15.19 6.81 15.19 15.19v26.58h-121.52v-26.58c0-8.38 6.81-15.19 15.19-15.19z" fill="#7c7c7c"/><rect fill="#d8d8d8" height="41.77" rx="20.89" width="182.28" x="164.86" y="389.23"/></g><g><g><path d="m338.98 144.28c18.63-18.63 47.73-21.79 63.08-22.05 6.18-.11 10.66 4.38 10.55 10.55-.26 15.35-3.42 44.45-22.05 63.08s-47.73 21.79-63.08 22.05c-6.18.11-10.66-4.38-10.55-10.55.26-15.35 3.42-44.45 22.05-63.08z" fill="#a5a5a5"/><path d="m356.58 180.89c22.85-13.13 51.76-8.59 66.65-4.84 5.99 1.51 9.15 7 7.44 12.94-4.26 14.75-14.9 42.02-37.75 55.14-22.85 13.13-51.76 8.59-66.65 4.84-5.99-1.51-9.15-7-7.44-12.94 4.26-14.75 14.9-42.02 37.75-55.14z" fill="#8e8e8e"/><path d="m366.7 211.74c26.03-4.09 51.41 10.48 63.97 19.31 5.06 3.55 6.04 9.81 2.32 14.74-9.25 12.25-28.94 33.91-54.97 38s-51.41-10.48-63.97-19.31c-5.06-3.55-6.04-9.81-2.32-14.74 9.25-12.25 28.94-33.91 54.97-38z" fill="#a5a5a5"/><path d="m351.36 243.06c24.84 8.78 40.23 33.68 47.08 47.42 2.76 5.53.64 11.5-4.98 14.07-13.97 6.38-41.59 16.06-66.43 7.28s-40.23-33.68-47.08-47.42c-2.76-5.53-.64-11.5 4.98-14.07 13.97-6.38 41.59-16.06 66.43-7.28z" fill="#8e8e8e"/></g><g><path d="m173.02 142.81c-18.63-18.63-47.73-21.79-63.08-22.05-6.18-.11-10.66 4.38-10.55 10.55.26 15.35 3.42 44.45 22.05 63.08s47.73 21.79 63.08 22.05c6.18.11 10.66-4.38 10.55-10.55-.26-15.35-3.42-44.45-22.05-63.08z" fill="#a5a5a5"/><path d="m155.42 180.89c-22.85-13.13-51.76-8.59-66.65-4.84-5.99 1.51-9.15 7-7.44 12.94 4.26 14.75 14.9 42.02 37.75 55.14 22.85 13.13 51.76 8.59 66.65 4.84 5.99-1.51 9.15-7 7.44-12.94-4.26-14.75-14.9-42.02-37.75-55.14z" fill="#8e8e8e"/><path d="m145.3 211.74c-26.03-4.09-51.41 10.48-63.97 19.31-5.06 3.55-6.04 9.81-2.32 14.74 9.25 12.25 28.94 33.91 54.97 38s51.41-10.48 63.97-19.31c5.06-3.55 6.04-9.81 2.32-14.74-9.25-12.25-28.94-33.91-54.97-38z" fill="#a5a5a5"/><path d="m160.64 243.06c-24.84 8.78-40.23 33.68-47.08 47.42-2.76 5.53-.64 11.5 4.98 14.07 13.97 6.38 41.59 16.06 66.43 7.28s40.23-33.68 47.08-47.42c2.76-5.53.64-11.5-4.98-14.07-13.97-6.38-41.59-16.06-66.43-7.28z" fill="#8e8e8e"/></g></g><g><path d="m241.6 83.84-70.06 28.71c-14.26 5.84-23.57 19.73-23.57 35.14v92.03c0 82.78 72.26 108.89 98.59 115.65 6.2 1.59 12.69 1.59 18.9 0 26.33-6.76 98.59-32.87 98.59-115.65v-92.03c0-15.41-9.31-29.29-23.57-35.14l-70.06-28.71c-9.23-3.78-19.57-3.78-28.8 0z" fill="#e5e5e5"/><path d="m256 337.58c-1.59 0-3.18-.2-4.72-.6-11.35-2.92-33.17-10.11-51.77-25.54-21.6-17.93-32.56-42.06-32.56-71.72v-92.03c0-7.74 4.63-14.63 11.79-17.57l70.06-28.71c2.3-.94 4.72-1.42 7.2-1.42s4.9.48 7.2 1.42l70.06 28.71c7.16 2.93 11.79 9.83 11.79 17.57v92.03c0 29.67-10.95 53.8-32.56 71.72-18.59 15.43-40.41 22.62-51.76 25.54-1.54.4-3.13.6-4.72.6z" fill="#d8d8d8"/></g><g><circle cx="256" cy="218.78" fill="#7f7f7f" r="72.15"/><path d="m223.19 267.1v-14.72l30.69-32.32c2.75-3.14 4.93-5.91 6.54-8.31s2.78-4.6 3.5-6.61 1.08-3.95 1.08-5.82c0-3.1-.83-5.72-2.49-7.88s-4.14-3.24-7.46-3.24c-3.62 0-6.3 1.28-8.05 3.83s-2.62 5.99-2.62 10.3h-22.44l-.13-.39c-.13-5.89 1.15-11.21 3.83-15.96s6.55-8.53 11.61-11.32 11.01-4.19 17.86-4.19 12.73 1.19 17.63 3.57c4.91 2.38 8.68 5.71 11.32 10.01s3.96 9.32 3.96 15.08c0 3.93-.67 7.54-2 10.83s-3.51 6.82-6.54 10.57-7.08 8.29-12.14 13.61l-14.39 15.24.13.33h18.91l.98-7.92h17.21v25.32h-67z" fill="#d8d8d8"/></g></g></g></svg>