<svg id="Layer_2" viewBox="0 0 512 512" xmlns="http://www.w3.org/2000/svg" data-name="Layer 2"><g id="Icon"><g id="_97" data-name="97"><path d="m256 0c-141.38 0-256 114.62-256 256s114.62 256 256 256 256-114.62 256-256-114.62-256-256-256zm163.34 419.34c-43.63 43.63-101.64 67.66-163.34 67.66s-119.71-24.03-163.34-67.66-67.66-101.64-67.66-163.34 24.03-119.71 67.66-163.34 101.64-67.66 163.34-67.66 119.71 24.03 163.34 67.66 67.66 101.64 67.66 163.34-24.03 119.71-67.66 163.34z" fill="#ffb031"/><g><path d="m210.43 347.46h91.14c8.38 0 15.19 6.81 15.19 15.19v26.58h-121.52v-26.58c0-8.38 6.81-15.19 15.19-15.19z" fill="#b24e1d"/><rect fill="#ffa017" height="41.77" rx="20.89" width="182.28" x="164.86" y="389.23"/></g><g><g><path d="m338.98 144.28c18.63-18.63 47.73-21.79 63.08-22.05 6.18-.11 10.66 4.38 10.55 10.55-.26 15.35-3.42 44.45-22.05 63.08s-47.73 21.79-63.08 22.05c-6.18.11-10.66-4.38-10.55-10.55.26-15.35 3.42-44.45 22.05-63.08z" fill="#ff7129"/><path d="m356.58 180.89c22.85-13.13 51.76-8.59 66.65-4.84 5.99 1.51 9.15 7 7.44 12.94-4.26 14.75-14.9 42.02-37.75 55.14-22.85 13.13-51.76 8.59-66.65 4.84-5.99-1.51-9.15-7-7.44-12.94 4.26-14.75 14.9-42.02 37.75-55.14z" fill="#f2540f"/><path d="m366.7 213.22c26.03-4.09 51.41 10.48 63.97 19.31 5.06 3.55 6.04 9.81 2.32 14.74-9.25 12.25-28.94 33.91-54.97 38s-51.41-10.48-63.97-19.31c-5.06-3.55-6.04-9.81-2.32-14.74 9.25-12.25 28.94-33.91 54.97-38z" fill="#ff7129"/><path d="m351.36 243.06c24.84 8.78 40.23 33.68 47.08 47.42 2.76 5.53.64 11.5-4.98 14.07-13.97 6.38-41.59 16.06-66.43 7.28s-40.23-33.68-47.08-47.42c-2.76-5.53-.64-11.5 4.98-14.07 13.97-6.38 41.59-16.06 66.43-7.28z" fill="#f2540f"/></g><g><path d="m173.02 144.28c-18.63-18.63-47.73-21.79-63.08-22.05-6.18-.11-10.66 4.38-10.55 10.55.26 15.35 3.42 44.45 22.05 63.08s47.73 21.79 63.08 22.05c6.18.11 10.66-4.38 10.55-10.55-.26-15.35-3.42-44.45-22.05-63.08z" fill="#ff7129"/><path d="m155.42 180.89c-22.85-13.13-51.76-8.59-66.65-4.84-5.99 1.51-9.15 7-7.44 12.94 4.26 14.75 14.9 42.02 37.75 55.14 22.85 13.13 51.76 8.59 66.65 4.84 5.99-1.51 9.15-7 7.44-12.94-4.26-14.75-14.9-42.02-37.75-55.14z" fill="#f2540f"/><path d="m145.3 213.22c-26.03-4.09-51.41 10.48-63.97 19.31-5.06 3.55-6.04 9.81-2.32 14.74 9.25 12.25 28.94 33.91 54.97 38s51.41-10.48 63.97-19.31c5.06-3.55 6.04-9.81 2.32-14.74-9.25-12.25-28.94-33.91-54.97-38z" fill="#ff7129"/><path d="m160.64 243.06c-24.84 8.78-40.23 33.68-47.08 47.42-2.76 5.53-.64 11.5 4.98 14.07 13.97 6.38 41.59 16.06 66.43 7.28s40.23-33.68 47.08-47.42c2.76-5.53.64-11.5-4.98-14.07-13.97-6.38-41.59-16.06-66.43-7.28z" fill="#f2540f"/></g></g><g><path d="m241.6 83.84-70.06 28.71c-14.26 5.84-23.57 19.73-23.57 35.14v92.03c0 82.78 72.26 108.89 98.59 115.65 6.2 1.59 12.69 1.59 18.9 0 26.33-6.76 98.59-32.87 98.59-115.65v-92.03c0-15.41-9.31-29.29-23.57-35.14l-70.06-28.71c-9.23-3.78-19.57-3.78-28.8 0z" fill="#ffb031"/><path d="m256 337.58c-1.59 0-3.18-.2-4.72-.6-11.35-2.92-33.17-10.11-51.77-25.54-21.6-17.93-32.56-42.06-32.56-71.72v-92.03c0-7.74 4.63-14.63 11.79-17.57l70.06-28.71c2.3-.94 4.72-1.42 7.2-1.42s4.9.48 7.2 1.42l70.06 28.71c7.16 2.93 11.79 9.83 11.79 17.57v92.03c0 29.67-10.95 53.8-32.56 71.72-18.59 15.43-40.41 22.62-51.76 25.54-1.54.4-3.13.6-4.72.6z" fill="#ffa017"/></g><g><circle cx="256" cy="218.78" fill="#fff0c5" r="72.15"/><path d="m255.51 267.79c-6.24 0-11.98-1.08-17.24-3.24s-9.43-5.33-12.53-9.52-4.58-9.31-4.45-15.38l.07-.39h22.38c0 2.01.48 3.85 1.44 5.53s2.32 3.02 4.09 4.02 3.85 1.5 6.25 1.5c3.75 0 6.73-1.09 8.93-3.27s3.3-5.02 3.3-8.51-1.2-6.51-3.6-8.8-5.89-3.43-10.47-3.43h-9.75v-16.95h10.4c2.57 0 4.74-.47 6.51-1.41s3.11-2.25 4.02-3.93c.92-1.68 1.37-3.63 1.37-5.86 0-3.14-.93-5.73-2.78-7.79-1.85-2.05-4.5-3.08-7.95-3.08-1.96 0-3.72.39-5.27 1.18s-2.77 1.86-3.66 3.24c-.89 1.37-1.34 2.98-1.34 4.81h-22.31l-.13-.39c-.18-5.23 1.12-9.84 3.89-13.81s6.64-7.06 11.61-9.26 10.62-3.3 16.95-3.3c10.21 0 18.42 2.35 24.63 7.03 6.21 4.69 9.32 11.31 9.32 19.86 0 4.75-1.25 8.82-3.76 12.2s-6.25 6.27-11.22 8.67c5.02 1.88 9.02 4.71 12.01 8.51 2.99 3.79 4.48 8.33 4.48 13.61 0 5.8-1.53 10.81-4.58 15.02s-7.23 7.45-12.53 9.72-11.33 3.4-18.09 3.4z" fill="#ffa017"/></g></g></g></svg>